<svg width="22" height="26" viewBox="0 0 22 26" fill="none" xmlns="http://www.w3.org/2000/svg">
<path d="M19.2817 22.7357C18.7534 23.5484 18.1794 24.285 17.5597 24.9453C16.94 25.6056 16.1934 25.946 15.3197 25.9663C14.446 25.9866 13.7603 25.819 13.2625 25.4634C12.7647 25.1078 12.0282 24.9301 11.0529 24.9301C10.0574 24.9301 9.3056 25.0977 8.79765 25.4329C8.2897 25.7682 7.61922 25.9561 6.78618 25.9968C5.93282 26.0374 5.17599 25.6971 4.51565 24.9758C3.85532 24.2545 3.25087 23.4977 2.70228 22.7053C2.15369 21.8925 1.65083 20.9427 1.19368 19.8557C0.736522 18.7687 0.406359 17.6309 0.203179 16.4423C-4.41788e-07 15.2537 -0.0507947 14.0651 0.0507949 12.8765C0.152385 11.6879 0.487627 10.5958 1.05653 9.60021C1.62543 8.60462 2.38735 7.81731 3.34229 7.23825C4.29724 6.65919 5.32328 6.3595 6.42046 6.33918C7.25349 6.31887 8.04588 6.50173 8.79765 6.88777C9.54942 7.27381 10.1894 7.46683 10.7177 7.46683C11.2256 7.46683 11.9266 7.24333 12.8206 6.79634C13.7146 6.34934 14.6594 6.17664 15.6549 6.27823C16.0816 6.29855 16.7877 6.45601 17.7731 6.75062C18.7585 7.04523 19.6271 7.75127 20.3789 8.86876C20.3382 8.9094 19.8608 9.33099 18.9464 10.1336C18.0321 10.9361 17.5851 12.1603 17.6055 13.806C17.6258 15.7769 18.2048 17.1432 19.3426 17.9051C20.4804 18.6671 21.0595 19.0582 21.0798 19.0785C21.0595 19.1191 20.9122 19.5153 20.6379 20.2671C20.3636 21.0189 19.9115 21.8417 19.2817 22.7357ZM11.8758 1.95052C12.3431 1.40193 12.9323 0.944784 13.6435 0.57906C14.3546 0.213336 15.0352 0.0203182 15.6854 0C15.7667 0.751766 15.6753 1.49336 15.4111 2.22481C15.147 2.95626 14.7914 3.59627 14.3444 4.14485C13.8974 4.69344 13.3285 5.15059 12.6377 5.51631C11.9469 5.88203 11.2358 6.03442 10.5044 5.97346C10.4028 5.24201 10.4993 4.51058 10.7939 3.77913C11.0885 3.04768 11.4491 2.43815 11.8758 1.95052Z" fill="white"/>
</svg>
