<svg width="20" height="14" viewBox="0 0 20 14" fill="none" xmlns="http://www.w3.org/2000/svg">
<g clip-path="url(#clip0)">
<path d="M8.08219 5.90998C8.08219 5.90998 8.39856 5.7893 9.03131 5.54795C9.66406 5.30659 9.98043 4.61188 9.98043 3.4638C9.98043 2.30267 9.64123 1.4351 8.96282 0.861057C8.28441 0.287016 7.44945 0 6.45793 0H0V12.955H6.45793C6.45793 12.955 6.6634 12.9419 7.07436 12.9159C7.48532 12.8898 7.93868 12.7593 8.43444 12.5245C8.9302 12.2896 9.38356 11.9145 9.79452 11.3992C10.2055 10.8839 10.411 10.1305 10.411 9.13894C10.411 9.13894 10.4077 8.96934 10.4012 8.63014C10.3947 8.29093 10.3229 7.92238 10.1859 7.52446C10.0489 7.12655 9.82061 6.75799 9.50098 6.41879C9.18134 6.07958 8.70842 5.90998 8.08219 5.90998ZM2.85714 2.3092H6.45793C6.45793 2.3092 6.6047 2.36464 6.89824 2.47554C7.19178 2.58643 7.33855 2.98108 7.33855 3.65949C7.33855 4.32486 7.22766 4.74886 7.00587 4.93151C6.78408 5.11416 6.52968 5.20548 6.24266 5.20548H2.85714V2.3092ZM6.2818 10.6458H2.85714V7.20157H6.45793C6.45793 7.20157 6.67645 7.27332 7.1135 7.41683C7.55056 7.56034 7.76908 8.07566 7.76908 8.96282C7.76908 9.73255 7.58643 10.2055 7.22114 10.3816C6.85584 10.5577 6.54273 10.6458 6.2818 10.6458ZM15.6751 3.30724C14.4879 3.30724 13.5682 3.5649 12.9159 4.08024C12.2635 4.59557 11.7906 5.16308 11.4971 5.78278C11.2035 6.40248 11.0307 6.97325 10.9785 7.49511C10.9263 8.01696 10.9002 8.27789 10.9002 8.27789C10.9002 8.27789 10.91 8.53555 10.9296 9.05088C10.9491 9.56621 11.0992 10.1337 11.3796 10.7534C11.6601 11.3731 12.1265 11.9406 12.7789 12.456C13.4312 12.9713 14.3966 13.229 15.6751 13.229C15.6751 13.229 15.8969 13.2224 16.3405 13.2094C16.7841 13.1963 17.2733 13.092 17.8082 12.8963C18.3431 12.7006 18.8291 12.3646 19.2661 11.8885C19.7032 11.4123 19.9217 10.711 19.9217 9.78474H17.7495C17.7495 9.78474 17.6745 10.0163 17.5245 10.4795C17.3744 10.9426 16.7841 11.1742 15.7534 11.1742C15.7534 11.1742 15.3881 11.0992 14.6575 10.9491C13.9269 10.7991 13.5616 10.1239 13.5616 8.92368H20C20 8.92368 20.0098 8.63014 20.0294 8.04305C20.0489 7.45597 19.9478 6.81018 19.726 6.10568C19.5042 5.40117 19.09 4.75865 18.4834 4.17808C17.8767 3.59752 16.9406 3.30724 15.6751 3.30724ZM17.6321 7.20157H13.5421C13.5421 7.20157 13.666 6.86889 13.9139 6.20352C14.1618 5.53816 14.7684 5.20548 15.7339 5.20548C16.6862 5.20548 17.2407 5.53816 17.3973 6.20352C17.5538 6.86889 17.6321 7.20157 17.6321 7.20157ZM18.1409 0.763209H13.0137V2.36791H18.1409V0.763209Z" fill="black"/>
</g>
<defs>
<clipPath id="clip0">
<rect width="20" height="13.229" fill="white"/>
</clipPath>
</defs>
</svg>
