<svg width="1366" height="1510" viewBox="0 0 1366 1510" fill="none" xmlns="http://www.w3.org/2000/svg">
<circle opacity="0.2" cx="445.41" cy="757.41" r="518.41" fill="url(#paint0_linear)"/>
<g opacity="0.1">
<mask id="path-3-inside-1" fill="white">
<path fill-rule="evenodd" clip-rule="evenodd" d="M945.391 877.462C1209.65 853.683 1416.74 631.606 1416.74 361.16C1416.74 74.8499 1184.64 -157.25 898.33 -157.25C653.28 -157.25 447.942 12.7742 393.849 241.289C129.593 265.068 -77.5 487.145 -77.5 757.591C-77.5 1043.9 154.6 1276 440.91 1276C685.959 1276 891.297 1105.98 945.391 877.462ZM898.33 879.569C914.193 879.569 929.891 878.857 945.391 877.462C954.499 838.986 959.319 798.851 959.319 757.591C959.319 471.282 727.219 239.182 440.91 239.182C425.046 239.182 409.349 239.894 393.849 241.289C384.741 279.765 379.92 319.899 379.92 361.16C379.92 647.469 612.02 879.569 898.33 879.569Z"/>
</mask>
<path d="M1411.52 361.16C1411.52 628.881 1206.51 848.727 944.923 872.266L945.858 882.658C1212.78 858.639 1421.96 634.33 1421.96 361.16H1411.52ZM898.33 -152.033C1181.76 -152.033 1411.52 77.731 1411.52 361.16H1421.96C1421.96 71.9687 1187.52 -162.467 898.33 -162.467V-152.033ZM398.925 242.491C452.474 16.2756 655.753 -152.033 898.33 -152.033V-162.467C650.808 -162.467 443.41 9.27277 388.772 240.087L398.925 242.491ZM-72.2832 757.591C-72.2832 489.87 132.725 270.024 394.316 246.485L393.381 236.093C126.46 260.112 -82.7168 484.421 -82.7168 757.591H-72.2832ZM440.91 1270.78C157.481 1270.78 -72.2832 1041.02 -72.2832 757.591H-82.7168C-82.7168 1046.78 151.719 1281.22 440.91 1281.22V1270.78ZM940.314 876.26C886.765 1102.48 683.486 1270.78 440.91 1270.78V1281.22C688.432 1281.22 895.83 1109.48 950.467 878.663L940.314 876.26ZM944.923 872.266C929.578 873.647 914.037 874.352 898.33 874.352V884.786C914.35 884.786 930.203 884.066 945.858 882.658L944.923 872.266ZM954.102 757.591C954.102 798.444 949.33 838.175 940.314 876.26L950.467 878.663C959.668 839.797 964.536 799.259 964.536 757.591H954.102ZM440.91 244.399C724.338 244.399 954.102 474.163 954.102 757.591H964.536C964.536 468.4 730.1 233.965 440.91 233.965V244.399ZM394.316 246.485C409.661 245.104 425.202 244.399 440.91 244.399V233.965C424.89 233.965 409.037 234.685 393.381 236.093L394.316 246.485ZM385.137 361.16C385.137 320.307 389.91 280.576 398.925 242.491L388.772 240.087C379.572 278.954 374.704 319.492 374.704 361.16H385.137ZM898.33 874.352C614.901 874.352 385.137 644.588 385.137 361.16H374.704C374.704 650.35 609.139 884.786 898.33 884.786V874.352Z" fill="black" mask="url(#path-3-inside-1)"/>
</g>
<defs>
<linearGradient id="paint0_linear" x1="-530.609" y1="1038.06" x2="732.788" y2="531.723" gradientUnits="userSpaceOnUse">
<stop stop-color="#AFAFAF"/>
<stop offset="1" stop-color="#C7C7C7" stop-opacity="0"/>
</linearGradient>
</defs>
</svg>
