<svg width="14" height="13" viewBox="0 0 14 13" fill="none" xmlns="http://www.w3.org/2000/svg">
<path d="M7.18945 0C8.08251 0 8.92481 0.169983 9.71639 0.509953C10.508 0.849924 11.198 1.3142 11.7866 1.90281C12.3752 2.49142 12.8395 3.17896 13.1795 3.96546C13.5195 4.75196 13.6895 5.59172 13.6895 6.48478C13.6895 7.38798 13.5195 8.23282 13.1795 9.01932C12.8395 9.80582 12.3752 10.4934 11.7866 11.082C11.198 11.6706 10.508 12.1349 9.71639 12.4748C8.92481 12.8148 8.08251 12.9848 7.18945 12.9848C6.2964 12.9848 5.45409 12.8148 4.66252 12.4748C3.87095 12.1349 3.18087 11.6706 2.59226 11.082C2.00366 10.4934 1.53938 9.80582 1.19941 9.01932C0.859436 8.23282 0.689453 7.38798 0.689453 6.48478C0.689453 5.59172 0.859436 4.75196 1.19941 3.96546C1.53938 3.17896 2.00366 2.49142 2.59226 1.90281C3.18087 1.3142 3.87095 0.849924 4.66252 0.509953C5.45409 0.169983 6.2964 0 7.18945 0ZM4.16018 8.50937L5.18009 9.52927L7.18945 7.50468L9.19882 9.52927L10.2187 8.50937L8.20936 6.48478L10.2187 4.47541L9.19882 3.4555L7.18945 5.46487L5.18009 3.4555L4.16018 4.47541L6.16955 6.48478L4.16018 8.50937Z" fill="#161616"/>
</svg>
