<svg width="53" height="15" viewBox="0 0 53 15" fill="none" xmlns="http://www.w3.org/2000/svg">
<path d="M48.4375 7.25H40.5625C38.3879 7.25 36.625 8.9849 36.625 11.125C36.625 13.2651 38.3879 15 40.5625 15H48.4375C50.6121 15 52.375 13.2651 52.375 11.125C52.375 8.9849 50.6121 7.25 48.4375 7.25Z" fill="#E9115F"/>
<ellipse cx="40.5625" cy="11.125" rx="3.30242" ry="3.25" fill="white"/>
<path fill-rule="evenodd" clip-rule="evenodd" d="M19.875 11.25C20.9105 11.25 21.75 10.4105 21.75 9.375C21.75 8.33947 20.9105 7.5 19.875 7.5C18.8395 7.5 18 8.33947 18 9.375C18 10.4105 18.8395 11.25 19.875 11.25ZM19.875 15C22.9816 15 25.5 12.4816 25.5 9.375C25.5 6.2684 22.9816 3.75 19.875 3.75C16.7684 3.75 14.25 6.2684 14.25 9.375C14.25 12.4816 16.7684 15 19.875 15Z" fill="black"/>
<path fill-rule="evenodd" clip-rule="evenodd" d="M8.1698 10.4529C8.7145 9.82491 9.09375 8.95666 9.09375 7.53265C9.09375 6.08156 8.71149 5.21516 8.1698 4.59063C7.74191 4.09731 7.1631 3.75 5.98352 3.75H3.75V11.25H5.98352C7.22052 11.25 7.79459 10.8866 8.16674 10.4564L8.1698 10.4529ZM0 15V0H5.98352C8.10954 0 9.77528 0.718432 11.0027 2.13353C12.2301 3.54862 12.8438 5.33382 12.8438 7.53265C12.8438 9.70972 12.2301 11.4949 11.0027 12.91C9.7972 14.3033 8.10954 15 5.98352 15H0Z" fill="black"/>
<path d="M27.75 0L31.5 0V3.75H33.375V7.5H31.5V10.3125C31.5 10.8303 31.9197 11.25 32.4375 11.25H33.375V15H31.5C29.4289 15 27.75 13.3211 27.75 11.25V7.5H26.625V3.75H27.75V0Z" fill="black"/>
</svg>
