<svg width="20" height="20" viewBox="0 0 20 20" fill="none" xmlns="http://www.w3.org/2000/svg">
<path d="M9.53291 7.19745C9.1649 6.54635 8.79689 5.93065 8.42887 5.35032C8.06086 4.76999 7.72824 4.2569 7.431 3.81104C7.13376 3.36518 6.88606 3.00779 6.6879 2.73885C6.48974 2.46992 6.3765 2.31423 6.3482 2.27176C5.75371 2.55485 5.2017 2.90163 4.69214 3.3121C4.18259 3.72258 3.72258 4.18259 3.3121 4.69214C2.90163 5.2017 2.55485 5.75725 2.27176 6.35881C1.98868 6.96037 1.77636 7.58669 1.63482 8.23779C1.69144 8.23779 1.94267 8.23425 2.38853 8.22718C2.8344 8.2201 3.41472 8.18825 4.12951 8.13164C4.84431 8.07502 5.66525 7.9724 6.59236 7.82378C7.51947 7.67516 8.49964 7.46639 9.53291 7.19745ZM10.5945 10.0637C10.6511 10.0495 10.7077 10.0354 10.7643 10.0212C10.8209 10.0071 10.8776 9.99292 10.9342 9.97877C10.8209 9.72399 10.7077 9.47629 10.5945 9.23567C10.4812 8.99505 10.3609 8.75443 10.2335 8.5138C9.12951 8.83935 8.06087 9.08705 7.0276 9.2569C5.99433 9.42675 5.07078 9.54706 4.2569 9.61784C3.44303 9.68861 2.78486 9.72753 2.28238 9.73461C1.7799 9.74168 1.50743 9.73815 1.46497 9.72399C1.46497 9.78061 1.46497 9.83015 1.46497 9.87261C1.46497 9.91508 1.46497 9.95754 1.46497 10C1.46497 11.104 1.65959 12.1444 2.04883 13.121C2.43808 14.0977 2.9724 14.9611 3.6518 15.7113C3.6518 15.7113 3.79688 15.4883 4.08705 15.0425C4.37721 14.5966 4.81245 14.0658 5.39278 13.4501C5.97311 12.8344 6.69497 12.2116 7.55839 11.5817C8.4218 10.9519 9.43382 10.4459 10.5945 10.0637ZM4.75584 16.7304C4.75584 16.7304 4.73815 16.7162 4.70276 16.6879C4.66737 16.6596 4.62137 16.6242 4.56476 16.5817C4.59306 16.6101 4.62491 16.6348 4.6603 16.6561C4.69568 16.6773 4.72753 16.7021 4.75584 16.7304ZM7.96178 1.71975C7.94763 1.71975 7.94055 1.71975 7.94055 1.71975C7.94055 1.71975 7.94409 1.71975 7.95117 1.71975C7.95825 1.71975 7.96178 1.71975 7.96178 1.71975ZM15.6476 3.58811C14.8974 2.93701 14.0375 2.42038 13.0679 2.03822C12.0984 1.65605 11.0757 1.46497 10 1.46497C9.64614 1.46497 9.3029 1.4862 8.97028 1.52866C8.63765 1.57113 8.30857 1.62774 7.98302 1.69851C8.01132 1.74098 8.1281 1.90021 8.33333 2.17622C8.53857 2.45223 8.78981 2.81316 9.08705 3.25902C9.38429 3.70489 9.71691 4.22151 10.0849 4.80892C10.4529 5.39632 10.8209 6.02264 11.189 6.6879C12.7884 6.07926 13.9278 5.41755 14.6072 4.70276C15.2866 3.98797 15.6334 3.61642 15.6476 3.58811ZM10 20C8.61287 20 7.31423 19.7381 6.10403 19.2144C4.89384 18.6907 3.83581 17.9759 2.92994 17.0701C2.02406 16.1642 1.30927 15.1062 0.785563 13.896C0.261852 12.6858 0 11.3871 0 10C0 8.62703 0.261852 7.33192 0.785563 6.11465C1.30927 4.89738 2.02406 3.83581 2.92994 2.92994C3.83581 2.02406 4.89384 1.30927 6.10403 0.785563C7.31423 0.261852 8.61287 0 10 0C11.3871 0 12.6858 0.261852 13.896 0.785563C15.1062 1.30927 16.1642 2.02406 17.0701 2.92994C17.9759 3.83581 18.6907 4.89738 19.2144 6.11465C19.7381 7.33192 20 8.62703 20 10C20 11.3871 19.7381 12.6858 19.2144 13.896C18.6907 15.1062 17.9759 16.1642 17.0701 17.0701C16.1642 17.9759 15.1062 18.6907 13.896 19.2144C12.6858 19.7381 11.3871 20 10 20ZM11.4437 11.4013C10.1982 11.8401 9.15075 12.3602 8.30149 12.9618C7.45223 13.5633 6.76575 14.1401 6.24204 14.6921C5.71833 15.2442 5.3397 15.7183 5.10616 16.1147C4.87261 16.511 4.75584 16.7162 4.75584 16.7304C5.47771 17.2965 6.2845 17.7389 7.17622 18.0573C8.06795 18.3758 9.0092 18.535 10 18.535C10.5945 18.535 11.1713 18.4784 11.7304 18.3652C12.2895 18.2519 12.8238 18.0892 13.3333 17.8769C13.305 17.6787 13.2484 17.3779 13.1635 16.9745C13.0786 16.5711 12.9653 16.0863 12.8238 15.5202C12.6822 14.954 12.5018 14.3171 12.2824 13.6093C12.063 12.9016 11.8047 12.1585 11.5074 11.38C11.4933 11.38 11.4827 11.3836 11.4756 11.3907C11.4685 11.3977 11.4579 11.4013 11.4437 11.4013ZM11.8471 7.96178C11.9462 8.15994 12.0418 8.36164 12.1338 8.56688C12.2258 8.77212 12.3142 8.98089 12.3992 9.19321C12.4416 9.26398 12.477 9.33829 12.5053 9.41614C12.5336 9.49399 12.5619 9.56829 12.5902 9.63907C13.3263 9.53999 14.0446 9.50106 14.7452 9.52229C15.4459 9.54352 16.0757 9.58245 16.6348 9.63907C17.1939 9.69568 17.6468 9.75584 17.9936 9.81953C18.3404 9.88323 18.5209 9.91507 18.535 9.91507C18.5209 8.91012 18.344 7.95117 18.0042 7.03822C17.6645 6.12526 17.1975 5.30786 16.603 4.58599C16.5888 4.60014 16.2137 4.99292 15.4777 5.76433C14.7417 6.53574 13.5315 7.26822 11.8471 7.96178ZM13.0998 10.9979C13.3829 11.7622 13.627 12.4876 13.8323 13.1741C14.0375 13.8606 14.2038 14.4728 14.3312 15.0106C14.4586 15.5485 14.5577 15.9979 14.6285 16.3588C14.6992 16.7197 14.7488 16.9639 14.7771 17.0913C15.2583 16.7657 15.7006 16.3942 16.104 15.9766C16.5074 15.5591 16.8648 15.1097 17.1762 14.6285C17.4876 14.1472 17.7495 13.6306 17.9618 13.0786C18.1741 12.5265 18.3298 11.9533 18.4289 11.3588C18.344 11.3305 17.7813 11.2067 16.741 10.9873C15.7006 10.7679 14.4869 10.7714 13.0998 10.9979Z" fill="black"/>
</svg>
