<svg width="152" height="37" viewBox="0 0 152 37" fill="none" xmlns="http://www.w3.org/2000/svg">
<path d="M11.475 7.21C13.246 7.21 14.632 7.9415 15.5945 9.443C16.5955 10.906 17.096 12.677 17.096 14.7945C17.096 16.8735 16.5955 18.6445 15.5945 20.1075C14.632 21.532 13.246 22.2635 11.475 22.2635H7.4325V7.21H11.475ZM11.475 28C15.2095 28 18.174 26.768 20.2915 24.304C22.4475 21.8015 23.5255 18.6445 23.5255 14.7945C23.5255 10.906 22.4475 7.749 20.2915 5.2465C18.1355 2.744 15.2095 1.4735 11.475 1.4735H0.9645V28H11.475ZM31.8114 22.1095C31.8114 17.0275 33.0434 15.4105 35.5459 15.4105C36.5469 15.4105 37.4709 15.5645 38.3179 15.8725L39.8194 10.0975C39.0879 9.751 38.2024 9.597 37.1629 9.597C34.6604 9.597 32.3889 11.2525 31.5034 14.4865V10.059H25.6899V28H31.8114V22.1095ZM48.7493 28.3465C51.4058 28.3465 53.6388 27.461 55.5253 25.7285C57.4118 23.996 58.3743 21.7245 58.3743 18.991C58.3743 16.219 57.4118 13.9475 55.5253 12.215C53.6388 10.4825 51.4058 9.597 48.7493 9.597C46.1313 9.597 43.8983 10.4825 42.0118 12.215C40.1638 13.9475 39.2398 16.219 39.2398 18.991C39.2398 21.7245 40.1638 23.996 42.0118 25.7285C43.8983 27.461 46.1313 28.3465 48.7493 28.3465ZM46.0928 16.373C47.5943 14.8715 49.9428 14.8715 51.3673 16.373C52.8688 17.7975 52.8688 20.146 51.3673 21.6475C49.9428 23.072 47.5943 23.072 46.0928 21.6475C44.6683 20.146 44.6683 17.7975 46.0928 16.373ZM66.5547 26.3445C67.7482 27.692 69.4037 28.3465 71.5212 28.3465C73.8697 28.3465 75.9102 27.4995 77.6427 25.767C79.3752 24.0345 80.2607 21.763 80.2607 18.9525C80.2607 16.142 79.3752 13.909 77.6427 12.1765C75.9102 10.444 73.8697 9.597 71.5212 9.597C69.3652 9.597 67.1707 10.6365 66.2082 12.6385V10.059H60.4332V36.855H66.5547V26.3445ZM70.2892 15.1795C73.4847 14.987 75.3712 19.4145 72.9072 21.5705C70.8282 23.919 66.3622 22.148 66.5547 19.0295C66.5547 17.99 66.9397 17.1045 67.6712 16.3345C68.4027 15.5645 69.2882 15.1795 70.2892 15.1795ZM82.3541 10.059V28H88.4756V10.059H82.3541ZM81.6996 4.0915C81.6996 5.978 83.3936 7.595 85.3956 7.595C87.4361 7.595 89.0531 6.055 89.0531 4.0915C89.0531 2.128 87.4361 0.626499 85.3956 0.626499C83.3936 0.626499 81.6996 2.128 81.6996 4.0915ZM108.892 28H115.014V10.059H109.624H99.498V9.4045C99.5365 7.441 100.499 6.44 102.001 6.44H104.311V0.626499H102.001C96.6105 0.626499 93.3765 3.7065 93.3765 9.4045V10.059H90.027V14.5635H93.3765V28H99.498V14.5635H108.892V28ZM108.238 4.0915C108.238 5.978 109.932 7.595 111.934 7.595C113.974 7.595 115.591 6.055 115.591 4.0915C115.591 2.128 113.974 0.626499 111.934 0.626499C109.932 0.626499 108.238 2.128 108.238 4.0915ZM135.863 18.76C135.863 16.0265 134.977 13.7935 133.168 12.138C131.397 10.444 129.202 9.597 126.546 9.597C123.889 9.597 121.656 10.4825 119.77 12.215C117.922 13.9475 116.998 16.1805 116.998 18.914C116.998 21.686 117.922 23.9575 119.77 25.7285C121.656 27.461 123.889 28.3465 126.546 28.3465C130.28 28.3465 132.975 27.23 134.669 24.997C134.477 24.843 133.784 24.3425 132.59 23.534C131.435 22.7255 130.704 22.1865 130.434 21.9555C129.587 22.9565 128.432 23.457 127.008 23.457C124.967 23.457 123.081 22.379 122.888 20.7235H135.747C135.824 19.7225 135.863 19.068 135.863 18.76ZM122.888 17.297C123.158 15.911 124.39 14.987 125.198 14.7945C125.622 14.679 126.045 14.6405 126.469 14.6405C127.855 14.6405 129.549 15.295 130.049 17.297H122.888ZM143.786 22.1095C143.786 17.0275 145.018 15.4105 147.521 15.4105C148.522 15.4105 149.446 15.5645 150.293 15.8725L151.794 10.0975C151.063 9.751 150.177 9.597 149.138 9.597C146.635 9.597 144.364 11.2525 143.478 14.4865V10.059H137.665V28H143.786V22.1095Z" fill="#2D2D2D"/>
</svg>
