<svg width="20" height="20" viewBox="0 0 20 20" fill="none" xmlns="http://www.w3.org/2000/svg">
<g clip-path="url(#clip0)">
<path d="M10 0C8.61978 0 7.32422 0.260414 6.11328 0.78125C4.88932 1.30209 3.82487 2.01497 2.91992 2.91992C2.01497 3.82487 1.30209 4.88932 0.78125 6.11328C0.260414 7.32422 0 8.61978 0 10C0 11.1068 0.169269 12.1615 0.507812 13.1641C0.846356 14.1667 1.31836 15.0814 1.92383 15.9082C2.5293 16.735 3.2552 17.4544 4.10156 18.0664C4.9349 18.6784 5.84635 19.1536 6.83594 19.4922C7.08333 19.5312 7.25911 19.4922 7.36328 19.375C7.46745 19.2578 7.51953 19.1341 7.51953 19.0039C7.51953 18.8867 7.51953 18.6523 7.51953 18.3008C7.51953 17.9492 7.51302 17.5651 7.5 17.1484C6.11978 17.4479 5.21485 17.3275 4.78516 16.7871C4.35547 16.2467 4.14062 15.9766 4.14062 15.9766C3.90625 15.3906 3.66211 15 3.4082 14.8047C3.1543 14.6094 3.02734 14.5117 3.02734 14.5117C2.57161 14.1992 2.4707 14.0202 2.72461 13.9746C2.97852 13.929 3.10547 13.9062 3.10547 13.9062C3.60026 13.9323 3.97786 14.1081 4.23828 14.4336C4.4987 14.7591 4.62891 14.9219 4.62891 14.9219C5.07162 15.6901 5.5957 16.0547 6.20117 16.0156C6.80664 15.9766 7.2526 15.8919 7.53906 15.7617C7.59115 15.4362 7.67578 15.1628 7.79297 14.9414C7.91016 14.7201 8.04036 14.5443 8.18359 14.4141C7.62369 14.362 7.07032 14.2513 6.52344 14.082C5.97656 13.9128 5.48828 13.6491 5.05859 13.291C4.6289 12.9329 4.28386 12.4479 4.02344 11.8359C3.75 11.224 3.61328 10.4362 3.61328 9.47266C3.61328 8.92578 3.70443 8.43099 3.88672 7.98828C4.06901 7.54557 4.32292 7.14844 4.64844 6.79688C4.59635 6.66667 4.53125 6.36393 4.45312 5.88867C4.375 5.41341 4.47265 4.83073 4.74609 4.14062C4.74609 4.14062 4.96419 4.15039 5.40039 4.16992C5.83659 4.18945 6.53645 4.52474 7.5 5.17578C7.89063 5.05859 8.29752 4.97396 8.7207 4.92188C9.14388 4.86979 9.57031 4.84375 10 4.84375C10.4297 4.84375 10.8561 4.86979 11.2793 4.92188C11.7025 4.97396 12.1094 5.05859 12.5 5.17578C13.4505 4.52474 14.1471 4.18945 14.5898 4.16992C15.0326 4.15039 15.2539 4.14062 15.2539 4.14062C15.5273 4.83073 15.625 5.41341 15.5469 5.88867C15.4687 6.36393 15.4036 6.66667 15.3516 6.79688C15.6771 7.14844 15.931 7.54557 16.1133 7.98828C16.2956 8.43099 16.3867 8.92578 16.3867 9.47266C16.3867 10.4362 16.25 11.224 15.9766 11.8359C15.7161 12.4479 15.3678 12.9329 14.9316 13.291C14.4954 13.6491 14.0039 13.9128 13.457 14.082C12.9232 14.2383 12.3763 14.349 11.8164 14.4141C11.9987 14.5703 12.1582 14.8014 12.2949 15.1074C12.4316 15.4134 12.5 15.8008 12.5 16.2695C12.5 16.9336 12.4967 17.5163 12.4902 18.0176C12.4837 18.5189 12.4805 18.8477 12.4805 19.0039C12.4805 19.1341 12.5326 19.2611 12.6367 19.3848C12.7409 19.5085 12.9167 19.5443 13.1641 19.4922C14.1537 19.1536 15.0716 18.6784 15.918 18.0664C16.7513 17.4544 17.4707 16.735 18.0762 15.9082C18.6816 15.0814 19.1536 14.1667 19.4922 13.1641C19.8307 12.1615 20 11.1068 20 10C20 8.61978 19.7396 7.32422 19.2188 6.11328C18.6979 4.88932 17.985 3.82487 17.0801 2.91992C16.1751 2.01497 15.1107 1.30209 13.8867 0.78125C12.6758 0.260414 11.3802 0 10 0Z" fill="black"/>
</g>
<defs>
<clipPath id="clip0">
<rect width="20" height="19.4922" fill="white"/>
</clipPath>
</defs>
</svg>
