<svg width="454" height="454" viewBox="0 0 454 454" fill="none" xmlns="http://www.w3.org/2000/svg">
<circle cx="227" cy="227" r="227" fill="#0057FF"/>
<path fill-rule="evenodd" clip-rule="evenodd" d="M274.457 284.771C322.251 280.47 359.707 240.304 359.707 191.39C359.707 139.608 317.728 97.6292 265.945 97.6292C221.625 97.6292 184.487 128.38 174.703 169.71C126.909 174.011 89.4534 214.176 89.4534 263.09C89.4534 314.873 131.432 356.851 183.215 356.851C227.535 356.851 264.673 326.1 274.457 284.771ZM265.945 285.152C268.814 285.152 271.653 285.023 274.457 284.771C276.104 277.812 276.976 270.553 276.976 263.09C276.976 211.307 234.998 169.329 183.215 169.329C180.346 169.329 177.507 169.458 174.703 169.71C173.056 176.669 172.184 183.928 172.184 191.39C172.184 243.173 214.162 285.152 265.945 285.152Z" fill="white"/>
</svg>
