<svg width="30" height="24" viewBox="0 0 30 24" fill="none" xmlns="http://www.w3.org/2000/svg">
<circle cx="14.5769" cy="10.9615" r="10.3846" fill="#2D2D2D"/>
<path d="M14.5602 11.108C15.4562 11.108 15.9322 11.556 15.9322 12.116C15.9322 12.69 15.4842 13.166 14.6022 13.166C13.8182 13.166 13.2862 12.662 13.0622 12.158L11.6342 13.418C12.1382 14.482 13.2582 15.112 14.6022 15.112C15.5822 15.112 16.4222 14.86 17.1082 14.356C17.7942 13.838 18.1442 13.138 18.1442 12.256C18.1442 11.248 17.5422 10.422 16.5342 10.044C17.3322 9.61 17.7382 9.008 17.7382 8.266C17.7522 7.594 17.5002 7.006 16.9682 6.502C16.4362 5.984 15.7642 5.718 14.9522 5.676C13.7062 5.606 12.5862 6.152 12.0122 7.034L13.3282 8.112C13.6922 7.734 14.1122 7.538 14.5742 7.538C14.8822 7.538 15.1202 7.636 15.2742 7.846C15.4422 8.042 15.5262 8.21 15.5262 8.364C15.5262 8.518 15.5122 8.658 15.4002 8.938C15.2882 9.204 14.9942 9.386 14.5602 9.386H13.6222V11.108H14.5602Z" fill="#F3F3F3"/>
</svg>
