<svg width="20" height="17" viewBox="0 0 20 17" fill="none" xmlns="http://www.w3.org/2000/svg">
<g clip-path="url(#clip0)">
<path d="M17.9618 4.0552C17.9618 4.14013 17.9618 4.22859 17.9618 4.32059C17.9618 4.4126 17.9618 4.50106 17.9618 4.58599C17.9618 5.9448 17.707 7.31776 17.1975 8.70488C16.6879 10.092 15.9413 11.3447 14.9575 12.4628C13.9738 13.581 12.7566 14.494 11.3057 15.2017C9.85491 15.9094 8.18118 16.2633 6.2845 16.2633C5.12384 16.2633 4.01274 16.1005 2.95117 15.7749C1.88959 15.4494 0.905879 14.9965 0 14.4161C0.155698 14.4303 0.314932 14.4444 0.477707 14.4586C0.640482 14.4728 0.806793 14.4798 0.976645 14.4798C1.93914 14.4798 2.85208 14.3241 3.7155 14.0127C4.57891 13.7013 5.36447 13.2696 6.07219 12.7176C5.18046 12.7035 4.38429 12.431 3.68365 11.9002C2.98301 11.3694 2.50531 10.6936 2.25053 9.87261C2.36377 9.90092 2.48761 9.91861 2.62208 9.92569C2.75655 9.93277 2.88747 9.93631 3.01486 9.93631C3.19887 9.93631 3.38287 9.92569 3.56688 9.90446C3.75089 9.88323 3.92781 9.85138 4.09766 9.80892C3.16348 9.61076 2.38146 9.13659 1.75159 8.38641C1.12172 7.63623 0.806794 6.76575 0.806794 5.77495C0.806794 5.76079 0.806794 5.75018 0.806794 5.7431C0.806794 5.73602 0.806794 5.73248 0.806794 5.73248C1.07573 5.87403 1.36943 5.9908 1.6879 6.0828C2.00637 6.17481 2.32838 6.22788 2.65393 6.24204C2.10191 5.87402 1.65959 5.38925 1.32696 4.78769C0.994337 4.18613 0.828026 3.5315 0.828026 2.82378C0.828026 2.44161 0.877565 2.07714 0.976645 1.73036C1.07573 1.38358 1.21727 1.06157 1.40127 0.764331C1.89668 1.38712 2.4593 1.94975 3.08917 2.45223C3.71904 2.95471 4.39136 3.39349 5.10616 3.76858C5.82095 4.14367 6.5782 4.4409 7.37792 4.6603C8.17764 4.87969 9.00212 5.01062 9.85138 5.05308C9.80892 4.89738 9.78061 4.74168 9.76645 4.58599C9.7523 4.43029 9.74522 4.27459 9.74522 4.1189C9.74522 3.55272 9.85138 3.0184 10.0637 2.51592C10.276 2.01344 10.5697 1.5782 10.9448 1.21019C11.3199 0.842178 11.7551 0.548479 12.2505 0.329087C12.7459 0.109695 13.2767 0 13.8429 0C14.4374 0 14.9929 0.116772 15.5096 0.350318C16.0262 0.583865 16.4685 0.898795 16.8365 1.29512C17.3036 1.21019 17.7565 1.0828 18.1953 0.912951C18.6341 0.743099 19.0517 0.544941 19.448 0.318471C19.2923 0.785565 19.0587 1.21373 18.7473 1.60297C18.436 1.99222 18.0679 2.31422 17.6433 2.569C18.0538 2.52654 18.4572 2.45223 18.8535 2.34607C19.2498 2.23991 19.632 2.10191 20 1.93206C19.7311 2.34254 19.4232 2.72824 19.0764 3.08917C18.7297 3.45011 18.3581 3.77211 17.9618 4.0552Z" fill="black"/>
</g>
<defs>
<clipPath id="clip0">
<rect width="20" height="16.2633" fill="white"/>
</clipPath>
</defs>
</svg>
